<svg width="1024" height="1024" viewBox="0 0 1024 1024" fill="none" xmlns="http://www.w3.org/2000/svg">
  <defs>
    <linearGradient id="bg" x1="112" y1="84" x2="912" y2="948" gradientUnits="userSpaceOnUse">
      <stop stop-color="#FFF8EE"/>
      <stop offset="1" stop-color="#F0E0C8"/>
    </linearGradient>
    <linearGradient id="panel" x1="180" y1="176" x2="848" y2="848" gradientUnits="userSpaceOnUse">
      <stop stop-color="#7A2419"/>
      <stop offset="1" stop-color="#4D1712"/>
    </linearGradient>
    <linearGradient id="seal" x1="340" y1="266" x2="684" y2="676" gradientUnits="userSpaceOnUse">
      <stop stop-color="#D49A48"/>
      <stop offset="1" stop-color="#B26B28"/>
    </linearGradient>
    <filter id="shadow" x="120" y="120" width="784" height="784" filterUnits="userSpaceOnUse" color-interpolation-filters="sRGB">
      <feDropShadow dx="0" dy="26" stdDeviation="34" flood-color="#5A1B13" flood-opacity="0.18"/>
    </filter>
  </defs>

  <rect width="1024" height="1024" rx="220" fill="url(#bg)"/>
  <rect x="52" y="52" width="920" height="920" rx="192" stroke="#E7D7BF" stroke-width="8"/>

  <g filter="url(#shadow)">
    <rect x="154" y="154" width="716" height="716" rx="144" fill="url(#panel)"/>
    <rect x="184" y="184" width="656" height="656" rx="116" stroke="rgba(255,244,229,0.16)" stroke-width="4"/>
  </g>

  <circle cx="512" cy="414" r="176" fill="url(#seal)"/>
  <circle cx="512" cy="414" r="150" fill="none" stroke="#F7E5C7" stroke-width="8" opacity="0.72"/>

  <path d="M443 294H505V505C505 545 532 573 570 573H610V635H560C493 635 443 584 443 517V294Z" fill="#FFF5E6"/>
  <path d="M610 573H664V635H610V573Z" fill="#FFF5E6"/>
  <path d="M570 573L664 474V635H610L570 573Z" fill="#F8D4A3"/>
  <path d="M376 702C410 675 454 660 512 660C570 660 614 675 648 702" stroke="#F7E2BF" stroke-width="10" stroke-linecap="round" opacity="0.7"/>

  <rect x="256" y="742" width="512" height="96" rx="48" fill="rgba(255,248,238,0.12)" stroke="rgba(255,240,223,0.18)" stroke-width="3"/>
  <text x="512" y="805" text-anchor="middle" font-family="'Noto Serif SC', serif" font-size="68" font-weight="800" letter-spacing="8" fill="#FFF5E6">申论宝</text>
  <text x="512" y="880" text-anchor="middle" font-family="'Noto Serif SC', serif" font-size="34" font-weight="600" letter-spacing="10" fill="#EFCFA9">SHENLUN BAO</text>
</svg>
